<svg width="45" height="45" viewBox="0 0 45 45" fill="none" xmlns="http://www.w3.org/2000/svg">
<path fill-rule="evenodd" clip-rule="evenodd" d="M31.725 19.0687C32.0976 18.6689 32.3004 18.14 32.2908 17.5935C32.2812 17.0471 32.0598 16.5257 31.6733 16.1392C31.2868 15.7527 30.7654 15.5313 30.219 15.5217C29.6725 15.512 29.1436 15.7149 28.7437 16.0875L19.6875 25.1437L16.2562 21.7125C15.8564 21.3399 15.3275 21.137 14.781 21.1467C14.2346 21.1563 13.7132 21.3777 13.3267 21.7642C12.9402 22.1507 12.7188 22.6721 12.7092 23.2185C12.6995 23.765 12.9024 24.2939 13.275 24.6937L18.1969 29.6156C18.5924 30.0106 19.1285 30.2325 19.6875 30.2325C20.2465 30.2325 20.7826 30.0106 21.1781 29.6156L31.725 19.0687Z" fill="#BD7048"/>
</svg>
