<svg width="67" height="51" viewBox="0 0 67 51" fill="none" xmlns="http://www.w3.org/2000/svg">
<path d="M21.73 50.84C17.67 50.84 14.0533 49.8367 10.88 47.83C7.70667 45.8233 5.21 42.93 3.39 39.15C1.61667 35.3233 0.73 30.7733 0.73 25.5C0.73 20.2267 1.61667 15.7 3.39 11.92C5.21 8.09333 7.70667 5.17666 10.88 3.17C14.0533 1.16333 17.67 0.159999 21.73 0.159999C25.79 0.159999 29.4067 1.16333 32.58 3.17C35.7533 5.17666 38.2267 8.09333 40 11.92C41.82 15.7 42.73 20.2267 42.73 25.5C42.73 30.7733 41.82 35.3233 40 39.15C38.2267 42.93 35.7533 45.8233 32.58 47.83C29.4067 49.8367 25.79 50.84 21.73 50.84ZM21.73 41.25C24.7167 41.25 27.05 39.9667 28.73 37.4C30.4567 34.8333 31.32 30.8667 31.32 25.5C31.32 20.1333 30.4567 16.1667 28.73 13.6C27.05 11.0333 24.7167 9.75 21.73 9.75C18.79 9.75 16.4567 11.0333 14.73 13.6C13.05 16.1667 12.21 20.1333 12.21 25.5C12.21 30.8667 13.05 34.8333 14.73 37.4C16.4567 39.9667 18.79 41.25 21.73 41.25ZM66.7296 0.999997V50H55.3896V10.1H45.5896V0.999997H66.7296Z" fill="#BD7048" fill-opacity="0.2"/>
</svg>
