<svg width="84" height="51" viewBox="0 0 84 51" fill="none" xmlns="http://www.w3.org/2000/svg">
<path d="M21.73 50.84C17.67 50.84 14.0533 49.8367 10.88 47.83C7.70667 45.8233 5.21 42.93 3.39 39.15C1.61667 35.3233 0.73 30.7733 0.73 25.5C0.73 20.2267 1.61667 15.7 3.39 11.92C5.21 8.09333 7.70667 5.17666 10.88 3.17C14.0533 1.16333 17.67 0.159999 21.73 0.159999C25.79 0.159999 29.4067 1.16333 32.58 3.17C35.7533 5.17666 38.2267 8.09333 40 11.92C41.82 15.7 42.73 20.2267 42.73 25.5C42.73 30.7733 41.82 35.3233 40 39.15C38.2267 42.93 35.7533 45.8233 32.58 47.83C29.4067 49.8367 25.79 50.84 21.73 50.84ZM21.73 41.25C24.7167 41.25 27.05 39.9667 28.73 37.4C30.4567 34.8333 31.32 30.8667 31.32 25.5C31.32 20.1333 30.4567 16.1667 28.73 13.6C27.05 11.0333 24.7167 9.75 21.73 9.75C18.79 9.75 16.4567 11.0333 14.73 13.6C13.05 16.1667 12.21 20.1333 12.21 25.5C12.21 30.8667 13.05 34.8333 14.73 37.4C16.4567 39.9667 18.79 41.25 21.73 41.25ZM70.4462 20.95C74.7395 21.65 78.0295 23.26 80.3162 25.78C82.6028 28.2533 83.7462 31.3333 83.7462 35.02C83.7462 37.8667 82.9995 40.5033 81.5062 42.93C80.0128 45.31 77.7262 47.2233 74.6462 48.67C71.6128 50.1167 67.8795 50.84 63.4462 50.84C59.9928 50.84 56.5862 50.3967 53.2262 49.51C49.9128 48.5767 47.0895 47.27 44.7562 45.59L49.1662 36.91C51.0328 38.31 53.1795 39.4067 55.6062 40.2C58.0795 40.9467 60.5995 41.32 63.1662 41.32C66.0128 41.32 68.2528 40.7833 69.8862 39.71C71.5195 38.59 72.3362 37.0267 72.3362 35.02C72.3362 31.0067 69.2795 29 63.1662 29H57.9862V21.51L68.0662 10.1H47.2062V0.999997H81.5062V8.35L70.4462 20.95Z" fill="#BD7048" fill-opacity="0.2"/>
</svg>
