<svg width="14" height="12" viewBox="0 0 14 12" fill="none" xmlns="http://www.w3.org/2000/svg">
<path fill-rule="evenodd" clip-rule="evenodd" d="M2.09815e-06 6C2.01867e-06 5.77271 0.0921791 5.55473 0.256255 5.39402C0.420331 5.2333 0.642866 5.14301 0.874904 5.14301L11.0115 5.14301L7.25469 1.46482C7.09041 1.3039 6.99811 1.08564 6.99811 0.858069C6.99811 0.630494 7.09041 0.41224 7.25469 0.251321C7.41897 0.0904012 7.64179 -2.67227e-06 7.87412 -2.75351e-06C8.10645 -2.83475e-06 8.32927 0.0904009 8.49355 0.25132L13.743 5.39325C13.8244 5.47285 13.8891 5.56742 13.9332 5.67154C13.9773 5.77566 14 5.88727 14 6C14 6.11272 13.9773 6.22433 13.9332 6.32845C13.8891 6.43257 13.8244 6.52714 13.743 6.60674L8.49356 11.7487C8.32927 11.9096 8.10646 12 7.87412 12C7.64179 12 7.41898 11.9096 7.25469 11.7487C7.09041 11.5878 6.99812 11.3695 6.99812 11.1419C6.99812 10.9144 7.09041 10.6961 7.25469 10.5352L11.0115 6.85698L0.874905 6.85699C0.642866 6.85699 0.420331 6.7667 0.256255 6.60598C0.0921794 6.44527 2.17763e-06 6.22729 2.09815e-06 6Z" fill="#262626"/>
</svg>
