<svg width="41" height="40" viewBox="0 0 41 40" fill="none" xmlns="http://www.w3.org/2000/svg">
<path fill-rule="evenodd" clip-rule="evenodd" d="M35.875 11.25V35C35.875 36.3261 35.335 37.5979 34.3739 38.5355C33.4128 39.4732 32.1092 40 30.75 40H28.1875V37.5H30.75C31.4296 37.5 32.0814 37.2366 32.562 36.7678C33.0425 36.2989 33.3125 35.663 33.3125 35V11.25H28.1875C27.1681 11.25 26.1904 10.8549 25.4696 10.1517C24.7487 9.44839 24.3438 8.49456 24.3438 7.5V2.5H10.25C9.57038 2.5 8.9186 2.76339 8.43804 3.23223C7.95748 3.70107 7.6875 4.33696 7.6875 5V27.5H5.125V5C5.125 3.67392 5.66495 2.40215 6.62608 1.46447C7.5872 0.526784 8.89077 0 10.25 0L24.3438 0L35.875 11.25ZM4.1 29.625H0V39.6225H2.02694V36.2675H4.08462C4.82006 36.2675 5.44531 36.125 5.96037 35.835C6.48056 35.5425 6.87775 35.1475 7.14681 34.65C7.42609 34.1279 7.56787 33.5463 7.55938 32.9575C7.55938 32.3325 7.42356 31.7675 7.1545 31.265C6.88687 30.7655 6.47771 30.3515 5.97575 30.0725C5.46325 29.7725 4.84056 29.625 4.1 29.625ZM5.49656 32.9575C5.5058 33.2869 5.43095 33.6133 5.27875 33.9075C5.1422 34.1636 4.92966 34.3736 4.66888 34.51C4.37057 34.654 4.04061 34.7244 3.70794 34.715H2.01925V31.2H3.7105C4.26912 31.2 4.70731 31.35 5.0225 31.6525C5.33769 31.9575 5.49656 32.3925 5.49656 32.9575ZM8.61512 29.625V39.6225H12.3564C13.3839 39.6225 14.2373 39.4225 14.9138 39.03C15.5983 38.6304 16.1329 38.0265 16.4384 37.3075C16.7716 36.5575 16.9407 35.6525 16.9407 34.5975C16.9407 33.5475 16.7741 32.6525 16.4384 31.91C16.1365 31.1993 15.6071 30.6029 14.9291 30.21C14.2526 29.82 13.3942 29.625 12.3538 29.625H8.61512ZM10.6421 31.2375H12.0848C12.7203 31.2375 13.2379 31.3625 13.6453 31.6175C14.0682 31.8873 14.3873 32.2866 14.5524 32.7525C14.7549 33.255 14.8548 33.8825 14.8548 34.635C14.8628 35.1336 14.8042 35.6311 14.6806 36.115C14.5893 36.4966 14.4183 36.8558 14.1783 37.17C13.9554 37.4504 13.66 37.6678 13.3224 37.8C12.927 37.9444 12.5069 38.0139 12.0848 38.005H10.6421V31.2375ZM20.2335 35.645V39.6225H18.2091V29.625H24.7384V31.2575H20.2335V34.05H24.3489V35.645H20.2335Z" fill="#BD7048"/>
</svg>
