<svg width="14" height="12" viewBox="0 0 14 12" fill="none" xmlns="http://www.w3.org/2000/svg">
<path fill-rule="evenodd" clip-rule="evenodd" d="M1.04907e-06 6C1.00933e-06 5.77271 0.0921781 5.55473 0.256254 5.39402C0.42033 5.2333 0.642865 5.14301 0.874903 5.14301L11.0115 5.14301L7.25469 1.46482C7.09041 1.3039 6.99811 1.08564 6.99811 0.85807C6.99811 0.630495 7.09041 0.412242 7.25469 0.251322C7.41897 0.0904025 7.64179 -1.33613e-06 7.87412 -1.37675e-06C8.10645 -1.41738e-06 8.32927 0.0904024 8.49355 0.251322L13.743 5.39325C13.8244 5.47286 13.8891 5.56743 13.9332 5.67154C13.9773 5.77566 14 5.88727 14 6C14 6.11272 13.9773 6.22434 13.9332 6.32845C13.8891 6.43257 13.8244 6.52714 13.743 6.60675L8.49355 11.7487C8.32927 11.9096 8.10645 12 7.87412 12C7.64179 12 7.41897 11.9096 7.25469 11.7487C7.09041 11.5878 6.99811 11.3695 6.99811 11.1419C6.99811 10.9144 7.09041 10.6961 7.25469 10.5352L11.0115 6.85699L0.874903 6.85699C0.642865 6.85699 0.42033 6.7667 0.256254 6.60598C0.0921782 6.44527 1.08881e-06 6.22729 1.04907e-06 6Z" fill="#262626"/>
</svg>
