<svg width="14" height="12" viewBox="0 0 14 12" fill="none" xmlns="http://www.w3.org/2000/svg">
<path fill-rule="evenodd" clip-rule="evenodd" d="M14 6C14 6.22729 13.9078 6.44527 13.7437 6.60598C13.5797 6.7667 13.3571 6.85699 13.1251 6.85699L2.98848 6.85699L6.74531 10.5352C6.90959 10.6961 7.00189 10.9144 7.00189 11.1419C7.00189 11.3695 6.90959 11.5878 6.74531 11.7487C6.58103 11.9096 6.35821 12 6.12588 12C5.89355 12 5.67073 11.9096 5.50645 11.7487L0.257035 6.60675C0.175559 6.52714 0.110916 6.43257 0.0668101 6.32846C0.0227036 6.22434 -5.14682e-07 6.11272 -5.24537e-07 6C-5.34391e-07 5.88728 0.0227036 5.77566 0.0668101 5.67155C0.110916 5.56743 0.175558 5.47286 0.257035 5.39325L5.50645 0.251323C5.67073 0.0904043 5.89355 7.08689e-07 6.12588 6.88377e-07C6.35821 6.68066e-07 6.58103 0.0904042 6.74531 0.251323C6.90959 0.412243 7.00189 0.630497 7.00189 0.858071C7.00189 1.08565 6.90959 1.3039 6.74531 1.46482L2.98848 5.14301L13.1251 5.14301C13.3571 5.14301 13.5797 5.2333 13.7437 5.39402C13.9078 5.55473 14 5.77271 14 6Z" fill="#262626"/>
</svg>
